<svg xmlns="http://www.w3.org/2000/svg" viewBox="0 0 290 300">
  <g>
    <polygon style="fill:#1EBEC4;" points="144.765,280.56 126.181,296.078 128.121,298.401 144.765,284.503 161.409,298.401 163.349,296.078"/>
    <polygon style="fill:#3D3D3D;" points="144.765,259.454 126.181,274.972 128.121,277.295 144.765,263.398 161.409,277.295 163.349,274.972"/>
    <polygon style="fill:#1EBEC4;" points="144.765,238.349 126.181,253.866 128.121,256.19 144.765,242.292 161.409,256.19 163.349,253.866"/>
    <path style="fill:#3D3D3D;" d="M144.989,188.955c-10.258,0-18.603,8.345-18.603,18.603c0,10.258,8.345,18.603,18.603,18.603c10.258,0,18.603-8.345,18.603-18.603C163.592,197.301,155.246,188.955,144.989,188.955z M144.989,223.134c-8.589,0-15.576-6.987-15.576-15.576c0-8.589,6.987-15.576,15.576-15.576c8.589,0,15.576,6.987,15.576,15.576C160.565,216.147,153.577,223.134,144.989,223.134z"/>
  </g>
</svg>
